<mxfile host="app.diagrams.net" modified="2023-05-29T16:27:16.718Z" agent="Mozilla/5.0 (Windows NT 10.0; Win64; x64) AppleWebKit/537.36 (KHTML, like Gecko) Chrome/113.0.0.0 Safari/537.36" etag="I8EnU8EhQu6WKavMSOkY" version="21.3.5" type="device">
  <diagram name="Page-1" id="9zt_uhlV35OjN0zecJz6">
    <mxGraphModel dx="1867" dy="658" grid="1" gridSize="10" guides="1" tooltips="1" connect="1" arrows="1" fold="1" page="1" pageScale="1" pageWidth="850" pageHeight="1100" math="0" shadow="0">
      <root>
        <mxCell id="0" />
        <mxCell id="1" parent="0" />
        <mxCell id="bHNSuGKCr-GM2xsOopNB-62" value="" style="endArrow=classic;startArrow=classic;html=1;rounded=0;fillColor=#3399FF;strokeColor=#009999;entryX=0;entryY=0.5;entryDx=0;entryDy=0;" parent="1" source="bHNSuGKCr-GM2xsOopNB-126" target="bHNSuGKCr-GM2xsOopNB-130" edge="1">
          <mxGeometry width="50" height="50" relative="1" as="geometry">
            <mxPoint x="40" y="536" as="sourcePoint" />
            <mxPoint x="80" y="580" as="targetPoint" />
            <Array as="points">
              <mxPoint x="87" y="500" />
            </Array>
          </mxGeometry>
        </mxCell>
        <mxCell id="bHNSuGKCr-GM2xsOopNB-126" value="" style="image;aspect=fixed;perimeter=ellipsePerimeter;html=1;align=center;shadow=0;dashed=0;spacingTop=3;image=img/lib/active_directory/users.svg;strokeColor=#009999;" parent="1" vertex="1">
          <mxGeometry x="70" y="366" width="33" height="50" as="geometry" />
        </mxCell>
        <mxCell id="bHNSuGKCr-GM2xsOopNB-134" value="" style="image;aspect=fixed;html=1;points=[];align=center;fontSize=12;image=img/lib/azure2/compute/App_Services.svg;" parent="1" vertex="1">
          <mxGeometry x="338.5" y="475" width="64" height="64" as="geometry" />
        </mxCell>
        <mxCell id="bHNSuGKCr-GM2xsOopNB-135" value="" style="image;aspect=fixed;html=1;points=[];align=center;fontSize=12;image=img/lib/azure2/compute/App_Services.svg;" parent="1" vertex="1">
          <mxGeometry x="480" y="264" width="64" height="64" as="geometry" />
        </mxCell>
        <mxCell id="bHNSuGKCr-GM2xsOopNB-136" value="" style="image;aspect=fixed;html=1;points=[];align=center;fontSize=12;image=img/lib/azure2/app_services/API_Management_Services.svg;" parent="1" vertex="1">
          <mxGeometry x="338.5" y="266" width="65" height="60" as="geometry" />
        </mxCell>
        <mxCell id="bHNSuGKCr-GM2xsOopNB-129" value="" style="html=1;verticalLabelPosition=bottom;align=center;labelBackgroundColor=#ffffff;verticalAlign=top;strokeWidth=2;strokeColor=#009999;shadow=0;dashed=0;shape=mxgraph.ios7.icons.smartphone;" parent="1" vertex="1">
          <mxGeometry x="180" y="278" width="18" height="30" as="geometry" />
        </mxCell>
        <mxCell id="bHNSuGKCr-GM2xsOopNB-130" value="" style="image;aspect=fixed;perimeter=ellipsePerimeter;html=1;align=center;shadow=0;dashed=0;spacingTop=3;image=img/lib/active_directory/laptop_client.svg;strokeColor=#009999;" parent="1" vertex="1">
          <mxGeometry x="167.5" y="475" width="45" height="50" as="geometry" />
        </mxCell>
        <mxCell id="bHNSuGKCr-GM2xsOopNB-206" value="" style="verticalLabelPosition=bottom;html=1;verticalAlign=top;align=center;strokeColor=none;fillColor=#00BEF2;shape=mxgraph.azure.sql_database_sql_azure;" parent="1" vertex="1">
          <mxGeometry x="840" y="517" width="47.5" height="50" as="geometry" />
        </mxCell>
        <mxCell id="XOguo-oPfblvn3olAEpq-1" value="&lt;font style=&quot;font-size: 36px;&quot;&gt;HealthFit - Cloud Infrastructure&lt;/font&gt;" style="text;html=1;strokeColor=none;fillColor=none;align=center;verticalAlign=middle;whiteSpace=wrap;rounded=0;fontStyle=1" parent="1" vertex="1">
          <mxGeometry x="50" y="130" width="561.57" height="65" as="geometry" />
        </mxCell>
        <mxCell id="XOguo-oPfblvn3olAEpq-6" value="" style="endArrow=classic;startArrow=classic;html=1;rounded=0;fillColor=#3399FF;strokeColor=#009999;entryX=-0.045;entryY=0.527;entryDx=0;entryDy=0;entryPerimeter=0;" parent="1" source="bHNSuGKCr-GM2xsOopNB-126" target="bHNSuGKCr-GM2xsOopNB-129" edge="1">
          <mxGeometry width="50" height="50" relative="1" as="geometry">
            <mxPoint x="150" y="322" as="sourcePoint" />
            <mxPoint x="190" y="366" as="targetPoint" />
            <Array as="points">
              <mxPoint x="87" y="293" />
            </Array>
          </mxGeometry>
        </mxCell>
        <mxCell id="XOguo-oPfblvn3olAEpq-7" value="" style="endArrow=classic;startArrow=classic;html=1;rounded=0;fillColor=#3399FF;strokeColor=#009999;exitX=0.904;exitY=0.467;exitDx=0;exitDy=0;exitPerimeter=0;entryX=0.023;entryY=0.45;entryDx=0;entryDy=0;entryPerimeter=0;" parent="1" source="bHNSuGKCr-GM2xsOopNB-129" target="bHNSuGKCr-GM2xsOopNB-136" edge="1">
          <mxGeometry width="50" height="50" relative="1" as="geometry">
            <mxPoint x="160" y="332" as="sourcePoint" />
            <mxPoint x="200" y="376" as="targetPoint" />
            <Array as="points" />
          </mxGeometry>
        </mxCell>
        <mxCell id="XOguo-oPfblvn3olAEpq-8" value="" style="endArrow=classic;startArrow=classic;html=1;rounded=0;fillColor=#3399FF;strokeColor=#009999;entryX=-0.022;entryY=0.361;entryDx=0;entryDy=0;entryPerimeter=0;exitX=1;exitY=0.5;exitDx=0;exitDy=0;" parent="1" source="bHNSuGKCr-GM2xsOopNB-130" target="bHNSuGKCr-GM2xsOopNB-134" edge="1">
          <mxGeometry width="50" height="50" relative="1" as="geometry">
            <mxPoint x="170" y="342" as="sourcePoint" />
            <mxPoint x="210" y="386" as="targetPoint" />
            <Array as="points" />
          </mxGeometry>
        </mxCell>
        <mxCell id="XOguo-oPfblvn3olAEpq-9" value="" style="endArrow=classic;startArrow=classic;html=1;rounded=0;fillColor=#3399FF;strokeColor=#009999;entryX=0.516;entryY=-0.005;entryDx=0;entryDy=0;entryPerimeter=0;" parent="1" source="bHNSuGKCr-GM2xsOopNB-136" target="bHNSuGKCr-GM2xsOopNB-134" edge="1">
          <mxGeometry width="50" height="50" relative="1" as="geometry">
            <mxPoint x="180" y="352" as="sourcePoint" />
            <mxPoint x="220" y="396" as="targetPoint" />
            <Array as="points" />
          </mxGeometry>
        </mxCell>
        <mxCell id="XOguo-oPfblvn3olAEpq-10" value="" style="endArrow=classic;startArrow=classic;html=1;rounded=0;fillColor=#3399FF;strokeColor=#009999;exitX=0.015;exitY=0.492;exitDx=0;exitDy=0;exitPerimeter=0;" parent="1" source="bHNSuGKCr-GM2xsOopNB-135" target="bHNSuGKCr-GM2xsOopNB-136" edge="1">
          <mxGeometry width="50" height="50" relative="1" as="geometry">
            <mxPoint x="190" y="362" as="sourcePoint" />
            <mxPoint x="230" y="406" as="targetPoint" />
            <Array as="points" />
          </mxGeometry>
        </mxCell>
        <mxCell id="XOguo-oPfblvn3olAEpq-27" value="Mobile Device" style="text;html=1;align=center;verticalAlign=middle;resizable=0;points=[];autosize=1;strokeColor=#;fillColor=none;" parent="1" vertex="1">
          <mxGeometry x="140" y="246" width="100" height="30" as="geometry" />
        </mxCell>
        <mxCell id="XOguo-oPfblvn3olAEpq-28" value="Browser" style="text;html=1;align=center;verticalAlign=middle;resizable=0;points=[];autosize=1;strokeColor=#;fillColor=none;" parent="1" vertex="1">
          <mxGeometry x="161" y="526" width="70" height="30" as="geometry" />
        </mxCell>
        <mxCell id="XOguo-oPfblvn3olAEpq-29" value="APIM Gateways" style="text;html=1;align=center;verticalAlign=middle;resizable=0;points=[];autosize=1;strokeColor=#;fillColor=none;" parent="1" vertex="1">
          <mxGeometry x="325" y="233" width="110" height="30" as="geometry" />
        </mxCell>
        <mxCell id="XOguo-oPfblvn3olAEpq-30" value="Web App" style="text;html=1;align=center;verticalAlign=middle;resizable=0;points=[];autosize=1;strokeColor=#;fillColor=none;" parent="1" vertex="1">
          <mxGeometry x="333.5" y="546" width="70" height="30" as="geometry" />
        </mxCell>
        <mxCell id="XOguo-oPfblvn3olAEpq-31" value="Rest API" style="text;html=1;align=center;verticalAlign=middle;resizable=0;points=[];autosize=1;strokeColor=#;fillColor=none;" parent="1" vertex="1">
          <mxGeometry x="477" y="230" width="70" height="30" as="geometry" />
        </mxCell>
        <mxCell id="KuKekF5oROK9fIX61lcE-21" value="" style="endArrow=classic;startArrow=classic;html=1;rounded=0;fillColor=#3399FF;strokeColor=#009999;exitX=0.019;exitY=0.109;exitDx=0;exitDy=0;exitPerimeter=0;" parent="1" source="KuKekF5oROK9fIX61lcE-2" target="bHNSuGKCr-GM2xsOopNB-135" edge="1">
          <mxGeometry width="50" height="50" relative="1" as="geometry">
            <mxPoint x="567" y="366" as="sourcePoint" />
            <mxPoint x="490" y="367" as="targetPoint" />
            <Array as="points" />
          </mxGeometry>
        </mxCell>
        <mxCell id="KuKekF5oROK9fIX61lcE-22" value="" style="endArrow=classic;startArrow=classic;html=1;rounded=0;fillColor=#3399FF;strokeColor=#009999;exitX=0;exitY=0.5;exitDx=0;exitDy=0;exitPerimeter=0;entryX=0.993;entryY=0.488;entryDx=0;entryDy=0;entryPerimeter=0;" parent="1" source="bHNSuGKCr-GM2xsOopNB-206" target="KuKekF5oROK9fIX61lcE-2" edge="1">
          <mxGeometry width="50" height="50" relative="1" as="geometry">
            <mxPoint x="907" y="430" as="sourcePoint" />
            <mxPoint x="830" y="431" as="targetPoint" />
            <Array as="points" />
          </mxGeometry>
        </mxCell>
        <mxCell id="KuKekF5oROK9fIX61lcE-24" value="" style="group" parent="1" vertex="1" connectable="0">
          <mxGeometry x="780" y="773.5" width="362.75" height="167.5" as="geometry" />
        </mxCell>
        <mxCell id="bHNSuGKCr-GM2xsOopNB-157" value="Enabled Bob Indexer for fast document finding and processing" style="text;html=1;align=center;verticalAlign=middle;resizable=0;points=[];autosize=1;strokeColor=#;fillColor=none;" parent="KuKekF5oROK9fIX61lcE-24" vertex="1">
          <mxGeometry y="104" width="360" height="30" as="geometry" />
        </mxCell>
        <mxCell id="bHNSuGKCr-GM2xsOopNB-149" value="/Publisher/Journal/version/Journal File/ e.g. 1/1/1/journalfile.pdf&amp;nbsp;" style="text;html=1;align=center;verticalAlign=middle;resizable=0;points=[];autosize=1;strokeColor=#;fillColor=none;" parent="KuKekF5oROK9fIX61lcE-24" vertex="1">
          <mxGeometry x="2.75" y="71" width="360" height="30" as="geometry" />
        </mxCell>
        <mxCell id="bHNSuGKCr-GM2xsOopNB-151" value="Read Only Access with SAL token and expirations" style="text;html=1;align=center;verticalAlign=middle;resizable=0;points=[];autosize=1;strokeColor=#;fillColor=none;" parent="KuKekF5oROK9fIX61lcE-24" vertex="1">
          <mxGeometry x="2.75" y="86.75" width="290" height="30" as="geometry" />
        </mxCell>
        <mxCell id="bHNSuGKCr-GM2xsOopNB-185" value="Azure Storage - Container - blob" style="text;html=1;align=center;verticalAlign=middle;resizable=0;points=[];autosize=1;strokeColor=#;fillColor=none;" parent="KuKekF5oROK9fIX61lcE-24" vertex="1">
          <mxGeometry y="-9" width="200" height="30" as="geometry" />
        </mxCell>
        <mxCell id="XOguo-oPfblvn3olAEpq-25" value="" style="group" parent="KuKekF5oROK9fIX61lcE-24" vertex="1" connectable="0">
          <mxGeometry x="15.75" y="21" width="167.25" height="50" as="geometry" />
        </mxCell>
        <mxCell id="bHNSuGKCr-GM2xsOopNB-152" value="" style="rounded=1;whiteSpace=wrap;html=1;strokeColor=#009999;" parent="XOguo-oPfblvn3olAEpq-25" vertex="1">
          <mxGeometry width="167.25" height="50" as="geometry" />
        </mxCell>
        <mxCell id="XOguo-oPfblvn3olAEpq-22" value="" style="image;aspect=fixed;html=1;points=[];align=center;fontSize=12;image=img/lib/azure2/general/Storage_Container.svg;" parent="XOguo-oPfblvn3olAEpq-25" vertex="1">
          <mxGeometry x="17.25" y="13" width="32" height="26" as="geometry" />
        </mxCell>
        <mxCell id="XOguo-oPfblvn3olAEpq-23" value="" style="verticalLabelPosition=bottom;html=1;verticalAlign=top;align=center;strokeColor=none;fillColor=#00BEF2;shape=mxgraph.azure.storage_blob;" parent="XOguo-oPfblvn3olAEpq-25" vertex="1">
          <mxGeometry x="59.25" y="10.5" width="41" height="29" as="geometry" />
        </mxCell>
        <mxCell id="XOguo-oPfblvn3olAEpq-24" value="" style="outlineConnect=0;dashed=0;verticalLabelPosition=bottom;verticalAlign=top;align=center;html=1;shape=mxgraph.aws3.global_secondary_index;fillColor=#2E73B8;gradientColor=none;" parent="XOguo-oPfblvn3olAEpq-25" vertex="1">
          <mxGeometry x="109.25" y="6.5" width="46" height="37" as="geometry" />
        </mxCell>
        <mxCell id="5ZlM1oaONODhOTickGu2-1" value="Large file will be uploaded in chucks" style="text;html=1;strokeColor=none;fillColor=none;align=center;verticalAlign=middle;whiteSpace=wrap;rounded=0;" parent="KuKekF5oROK9fIX61lcE-24" vertex="1">
          <mxGeometry y="119.5" width="224" height="30" as="geometry" />
        </mxCell>
        <mxCell id="KuKekF5oROK9fIX61lcE-26" value="" style="group" parent="1" vertex="1" connectable="0">
          <mxGeometry x="131.00000000000006" y="800.5" width="395.93" height="66.5" as="geometry" />
        </mxCell>
        <mxCell id="bHNSuGKCr-GM2xsOopNB-137" value="File Storage Server 1X" style="text;html=1;align=center;verticalAlign=middle;resizable=0;points=[];autosize=1;strokeColor=#;fillColor=none;" parent="KuKekF5oROK9fIX61lcE-26" vertex="1">
          <mxGeometry x="217" y="4.5" width="140" height="30" as="geometry" />
        </mxCell>
        <mxCell id="bHNSuGKCr-GM2xsOopNB-138" value="Directly access with Url as its Static Non Sensitive Data" style="text;html=1;align=center;verticalAlign=middle;resizable=0;points=[];autosize=1;strokeColor=#;fillColor=none;" parent="KuKekF5oROK9fIX61lcE-26" vertex="1">
          <mxGeometry x="42" y="36.5" width="320" height="30" as="geometry" />
        </mxCell>
        <mxCell id="bHNSuGKCr-GM2xsOopNB-139" value="" style="shape=mxgraph.cisco.servers.fileserver;html=1;pointerEvents=1;dashed=0;fillColor=#036897;strokeColor=#ffffff;strokeWidth=2;verticalLabelPosition=bottom;verticalAlign=top;align=center;outlineConnect=0;" parent="KuKekF5oROK9fIX61lcE-26" vertex="1">
          <mxGeometry x="352.93" width="43" height="62" as="geometry" />
        </mxCell>
        <mxCell id="bHNSuGKCr-GM2xsOopNB-140" value="/Publisher/Journal/version/Static Files/ e.g. 1/1/1/coverphoto.jpg" style="text;html=1;align=center;verticalAlign=middle;resizable=0;points=[];autosize=1;strokeColor=#;fillColor=none;" parent="KuKekF5oROK9fIX61lcE-26" vertex="1">
          <mxGeometry y="20.5" width="360" height="30" as="geometry" />
        </mxCell>
        <mxCell id="KuKekF5oROK9fIX61lcE-2" value="" style="rounded=1;whiteSpace=wrap;html=1;strokeColor=#009999;" parent="1" vertex="1">
          <mxGeometry x="600" y="223.5" width="159" height="656.5" as="geometry" />
        </mxCell>
        <mxCell id="KuKekF5oROK9fIX61lcE-3" value="Services" style="html=1;whiteSpace=wrap;strokeColor=none;fillColor=#0079D6;labelPosition=center;verticalLabelPosition=middle;verticalAlign=top;align=center;fontSize=12;outlineConnect=0;spacingTop=-6;fontColor=#FFFFFF;sketch=0;shape=mxgraph.sitemap.services;" parent="1" vertex="1">
          <mxGeometry x="638" y="621.5" width="80" height="44" as="geometry" />
        </mxCell>
        <mxCell id="KuKekF5oROK9fIX61lcE-4" value="Services" style="html=1;whiteSpace=wrap;strokeColor=none;fillColor=#0079D6;labelPosition=center;verticalLabelPosition=middle;verticalAlign=top;align=center;fontSize=12;outlineConnect=0;spacingTop=-6;fontColor=#FFFFFF;sketch=0;shape=mxgraph.sitemap.services;" parent="1" vertex="1">
          <mxGeometry x="638" y="711" width="80" height="44" as="geometry" />
        </mxCell>
        <mxCell id="KuKekF5oROK9fIX61lcE-5" value="Services" style="html=1;whiteSpace=wrap;strokeColor=none;fillColor=#0079D6;labelPosition=center;verticalLabelPosition=middle;verticalAlign=top;align=center;fontSize=12;outlineConnect=0;spacingTop=-6;fontColor=#FFFFFF;sketch=0;shape=mxgraph.sitemap.services;" parent="1" vertex="1">
          <mxGeometry x="639" y="807.5" width="80" height="44" as="geometry" />
        </mxCell>
        <mxCell id="KuKekF5oROK9fIX61lcE-6" value="User" style="text;html=1;align=center;verticalAlign=middle;resizable=0;points=[];autosize=1;strokeColor=#;fillColor=none;" parent="1" vertex="1">
          <mxGeometry x="653" y="598.5" width="50" height="30" as="geometry" />
        </mxCell>
        <mxCell id="KuKekF5oROK9fIX61lcE-7" value="Jouranl" style="text;html=1;align=center;verticalAlign=middle;resizable=0;points=[];autosize=1;strokeColor=#;fillColor=none;" parent="1" vertex="1">
          <mxGeometry x="654" y="688" width="60" height="30" as="geometry" />
        </mxCell>
        <mxCell id="KuKekF5oROK9fIX61lcE-8" value="DMS" style="text;html=1;align=center;verticalAlign=middle;resizable=0;points=[];autosize=1;strokeColor=#;fillColor=none;" parent="1" vertex="1">
          <mxGeometry x="656" y="781.5" width="50" height="30" as="geometry" />
        </mxCell>
        <mxCell id="KuKekF5oROK9fIX61lcE-9" value="Services" style="html=1;whiteSpace=wrap;strokeColor=none;fillColor=#0079D6;labelPosition=center;verticalLabelPosition=middle;verticalAlign=top;align=center;fontSize=12;outlineConnect=0;spacingTop=-6;fontColor=#FFFFFF;sketch=0;shape=mxgraph.sitemap.services;" parent="1" vertex="1">
          <mxGeometry x="635" y="542" width="80" height="44" as="geometry" />
        </mxCell>
        <mxCell id="KuKekF5oROK9fIX61lcE-10" value="Others" style="text;html=1;align=center;verticalAlign=middle;resizable=0;points=[];autosize=1;strokeColor=#;fillColor=none;" parent="1" vertex="1">
          <mxGeometry x="648" y="517" width="60" height="30" as="geometry" />
        </mxCell>
        <mxCell id="KuKekF5oROK9fIX61lcE-11" value="Services" style="html=1;whiteSpace=wrap;strokeColor=none;fillColor=#0079D6;labelPosition=center;verticalLabelPosition=middle;verticalAlign=top;align=center;fontSize=12;outlineConnect=0;spacingTop=-6;fontColor=#FFFFFF;sketch=0;shape=mxgraph.sitemap.services;" parent="1" vertex="1">
          <mxGeometry x="636" y="456.5" width="80" height="44" as="geometry" />
        </mxCell>
        <mxCell id="KuKekF5oROK9fIX61lcE-12" value="Email" style="text;html=1;align=center;verticalAlign=middle;resizable=0;points=[];autosize=1;strokeColor=#;fillColor=none;" parent="1" vertex="1">
          <mxGeometry x="653" y="426.5" width="50" height="30" as="geometry" />
        </mxCell>
        <mxCell id="KuKekF5oROK9fIX61lcE-13" value="Services" style="html=1;whiteSpace=wrap;strokeColor=none;fillColor=#0079D6;labelPosition=center;verticalLabelPosition=middle;verticalAlign=top;align=center;fontSize=12;outlineConnect=0;spacingTop=-6;fontColor=#FFFFFF;sketch=0;shape=mxgraph.sitemap.services;" parent="1" vertex="1">
          <mxGeometry x="638" y="374.5" width="80" height="44" as="geometry" />
        </mxCell>
        <mxCell id="KuKekF5oROK9fIX61lcE-14" value="Payments" style="text;html=1;align=center;verticalAlign=middle;resizable=0;points=[];autosize=1;strokeColor=#;fillColor=none;" parent="1" vertex="1">
          <mxGeometry x="641" y="351.5" width="80" height="30" as="geometry" />
        </mxCell>
        <mxCell id="9SPCUYCR5ONlI92fUqbb-1" value="Services" style="html=1;whiteSpace=wrap;strokeColor=none;fillColor=#0079D6;labelPosition=center;verticalLabelPosition=middle;verticalAlign=top;align=center;fontSize=12;outlineConnect=0;spacingTop=-6;fontColor=#FFFFFF;sketch=0;shape=mxgraph.sitemap.services;" vertex="1" parent="1">
          <mxGeometry x="636.539748427673" y="286.3918918918919" width="78.9937106918239" height="50.73873873873874" as="geometry" />
        </mxCell>
        <mxCell id="9SPCUYCR5ONlI92fUqbb-2" value="Identity &amp;amp; Access&lt;br&gt;(SSO)" style="text;html=1;align=center;verticalAlign=middle;resizable=0;points=[];autosize=1;strokeColor=#;fillColor=none;" vertex="1" parent="1">
          <mxGeometry x="624.5020125786164" y="248.86936936936937" width="110" height="40" as="geometry" />
        </mxCell>
        <mxCell id="9SPCUYCR5ONlI92fUqbb-3" value="" style="endArrow=classic;startArrow=classic;html=1;rounded=0;fillColor=#3399FF;strokeColor=#009999;exitX=1;exitY=0.5;exitDx=0;exitDy=0;exitPerimeter=0;" edge="1" parent="1">
          <mxGeometry width="50" height="50" relative="1" as="geometry">
            <mxPoint x="719" y="830" as="sourcePoint" />
            <mxPoint x="800" y="830" as="targetPoint" />
            <Array as="points" />
          </mxGeometry>
        </mxCell>
        <mxCell id="9SPCUYCR5ONlI92fUqbb-4" value="" style="endArrow=classic;startArrow=classic;html=1;rounded=0;fillColor=#3399FF;strokeColor=#009999;exitX=0;exitY=0.5;exitDx=0;exitDy=0;exitPerimeter=0;" edge="1" parent="1">
          <mxGeometry width="50" height="50" relative="1" as="geometry">
            <mxPoint x="639" y="830" as="sourcePoint" />
            <mxPoint x="527" y="831" as="targetPoint" />
            <Array as="points" />
          </mxGeometry>
        </mxCell>
      </root>
    </mxGraphModel>
  </diagram>
</mxfile>
